<svg width="24" height="26" viewBox="0 0 24 26" fill="none" xmlns="http://www.w3.org/2000/svg">
<path d="M20.8 23.4H2.6V9.1H20.8M16.9 0V2.6H6.5V0H3.9V2.6H2.6C1.157 2.6 0 3.757 0 5.2V23.4C0 24.0896 0.273928 24.7509 0.761522 25.2385C1.24912 25.7261 1.91044 26 2.6 26H20.8C21.4896 26 22.1509 25.7261 22.6385 25.2385C23.1261 24.7509 23.4 24.0896 23.4 23.4V5.2C23.4 4.51044 23.1261 3.84912 22.6385 3.36152C22.1509 2.87393 21.4896 2.6 20.8 2.6H19.5V0M18.2 14.3H11.7V20.8H18.2V14.3Z" fill="#EFE9E9"/>
</svg>
