<svg width="28" height="28" viewBox="0 0 28 28" fill="none" xmlns="http://www.w3.org/2000/svg">
<path d="M22.1667 8.16663H5.83335C5.52393 8.16663 5.22719 8.28954 5.0084 8.50833C4.7896 8.72713 4.66669 9.02387 4.66669 9.33329V24.5C4.66669 24.8094 4.7896 25.1061 5.0084 25.3249C5.22719 25.5437 5.52393 25.6666 5.83335 25.6666H22.1667C22.4761 25.6666 22.7729 25.5437 22.9917 25.3249C23.2104 25.1061 23.3334 24.8094 23.3334 24.5V9.33329C23.3334 9.02387 23.2104 8.72713 22.9917 8.50833C22.7729 8.28954 22.4761 8.16663 22.1667 8.16663Z" stroke="#EFE9E9" stroke-width="3" stroke-linecap="round" stroke-linejoin="round"/>
<path d="M9.91669 10.5V6.41664C9.91669 5.88041 10.0223 5.34943 10.2275 4.85402C10.4327 4.35861 10.7335 3.90847 11.1127 3.52929C11.4918 3.15012 11.942 2.84934 12.4374 2.64414C12.9328 2.43893 13.4638 2.33331 14 2.33331C14.5362 2.33331 15.0672 2.43893 15.5626 2.64414C16.0581 2.84934 16.5082 3.15012 16.8874 3.52929C17.2665 3.90847 17.5673 4.35861 17.7725 4.85402C17.9777 5.34943 18.0833 5.88041 18.0833 6.41664V10.5" stroke="#EFE9E9" stroke-width="3" stroke-linecap="round" stroke-linejoin="round"/>
</svg>
